<?xml version="1.0" encoding="utf-8"?>
<!-- Generator: Adobe Illustrator 24.1.2, SVG Export Plug-In . SVG Version: 6.00 Build 0)  -->
<svg version="1.1" id="Layer_1" xmlns="http://www.w3.org/2000/svg" xmlns:xlink="http://www.w3.org/1999/xlink" x="0px" y="0px"
	 viewBox="0 0 26 19" style="enable-background:new 0 0 26 19;" xml:space="preserve">
<g>
	<path d="M25,18.2H1c-0.6,0-1-0.4-1-1s0.4-1,1-1h24c0.6,0,1,0.4,1,1S25.6,18.2,25,18.2z M25,10.2H1c-0.6,0-1-0.4-1-1s0.4-1,1-1h24
		c0.6,0,1,0.4,1,1S25.6,10.2,25,10.2z M25,2.2H1c-0.6,0-1-0.4-1-1s0.4-1,1-1h24c0.6,0,1,0.4,1,1S25.6,2.2,25,2.2z"/>
</g>
</svg>
