<svg width="23" height="24" viewBox="0 0 23 24" fill="none" xmlns="http://www.w3.org/2000/svg">
<path d="M8.875 9.04156C8.875 7.46925 9.48809 5.85649 10.6028 4.74424L11.3121 4.03644C12.062 3.2882 12.5434 2.34785 12.7131 1.3266C12.7916 0.853897 13.1869 0.5 13.6657 0.5H13.6682C13.6682 2.07231 13.0551 3.5511 11.9404 4.66335L11.2311 5.37114C10.4786 6.12191 9.99477 7.15074 9.82756 8.21243C9.75156 8.68514 9.35635 9.04156 8.875 9.04156Z" fill="#131313"/>
<path d="M19.0613 11.7969H17.3183H16.4316H5.03125V18.3288C5.03125 19.9593 6.36129 21.2864 7.99534 21.2864H14.3517C15.9857 21.2864 17.3158 19.9593 17.3158 18.3288V17.3H19.0588C20.0341 17.3 20.8296 16.5088 20.8296 15.533V13.5613C20.8321 12.5881 20.0366 11.7969 19.0613 11.7969ZM16.4316 18.3288C16.4316 19.4739 15.5018 20.4016 14.3542 20.4016H7.99788C6.85024 20.4016 5.92048 19.4739 5.92048 18.3288V12.9344C5.92048 12.7954 6.03448 12.6816 6.17382 12.6816H16.1808C16.3201 12.6816 16.4341 12.7954 16.4341 12.9344V17.3V18.3288H16.4316ZM19.9454 15.533C19.9454 16.0209 19.5502 16.4152 19.0613 16.4152H17.5716C17.4323 16.4152 17.3183 16.3015 17.3183 16.1625V12.9344C17.3183 12.7954 17.4323 12.6816 17.5716 12.6816H19.0613C19.5477 12.6816 19.9454 13.076 19.9454 13.5638V15.533Z" fill="#131313"/>
<path d="M22.9983 22.6133H0V23.498H22.9983V22.6133Z" fill="#131313"/>
</svg>
