<svg width="20" height="22" viewBox="0 0 20 22" fill="none" xmlns="http://www.w3.org/2000/svg">
<path d="M18.5576 0.560547H1.44241C0.645752 0.560547 0 1.25029 0 2.10122V20.3823C0 21.2332 0.645752 21.9229 1.44241 21.9229H10.6836V13.6617H8.08594V10.4281H10.6836V8.04844C10.6836 5.28882 12.2609 3.78678 14.5656 3.78678C15.6694 3.78678 16.618 3.87463 16.8945 3.9139V6.7982H15.3053C14.0514 6.7982 13.8086 7.43465 13.8086 8.3687V10.4281H16.8066L16.416 13.6617H13.8086V21.9229H18.5576C19.3542 21.9229 20 21.2332 20 20.3823V2.10122C20 1.25029 19.3542 0.560547 18.5576 0.560547V0.560547Z" fill="#F8F8F8"/>
</svg>
