<svg width="20" height="22" viewBox="0 0 20 22" fill="none" xmlns="http://www.w3.org/2000/svg">
<g clip-path="url(#clip0_783_3775)">
<path d="M14.1904 0.560547H5.80969C2.60621 0.560547 0 3.34429 0 6.76599V15.7175C0 19.1392 2.60621 21.9229 5.80969 21.9229H14.1903C17.3938 21.9229 20 19.1392 20 15.7175V6.76599C20 3.34429 17.3938 0.560547 14.1904 0.560547ZM18.4375 15.7175C18.4375 18.2189 16.5322 20.254 14.1904 20.254H5.80969C3.46777 20.254 1.5625 18.2189 1.5625 15.7175V6.76599C1.5625 4.26454 3.46777 2.22948 5.80969 2.22948H14.1903C16.5322 2.22948 18.4375 4.26454 18.4375 6.76599V15.7175Z" fill="#F8F8F8"/>
<path d="M10 5.48438C7.02758 5.48438 4.60938 8.06731 4.60938 11.2422C4.60938 14.4171 7.02758 17 10 17C12.9724 17 15.3906 14.4171 15.3906 11.2422C15.3906 8.06731 12.9724 5.48438 10 5.48438ZM10 15.3311C7.88918 15.3311 6.17188 13.4968 6.17188 11.2422C6.17188 8.9876 7.88918 7.15331 10 7.15331C12.1108 7.15331 13.8281 8.9876 13.8281 11.2422C13.8281 13.4968 12.1108 15.3311 10 15.3311Z" fill="#F8F8F8"/>
<path d="M15.4688 6.23534C15.9002 6.23534 16.25 5.86174 16.25 5.40087C16.25 4.94001 15.9002 4.56641 15.4688 4.56641C15.0373 4.56641 14.6875 4.94001 14.6875 5.40087C14.6875 5.86174 15.0373 6.23534 15.4688 6.23534Z" fill="#F8F8F8"/>
</g>
<defs>
<clipPath id="clip0_783_3775">
<rect width="20" height="21.3624" fill="white" transform="translate(0 0.560547)"/>
</clipPath>
</defs>
</svg>
