<svg width="56" height="59" viewBox="0 0 56 59" fill="none" xmlns="http://www.w3.org/2000/svg">
<g clip-path="url(#clip0_4179_2403)">
<path d="M42.2377 57.8028V17.4689L37.0365 15.7449C37.0014 15.7325 36.9716 15.7073 36.9523 15.6739C36.933 15.6404 36.9254 15.6008 36.9309 15.562C36.9364 15.5232 36.9547 15.4877 36.9824 15.4618C37.0101 15.4358 37.0456 15.4211 37.0825 15.4202H46.2665V14.7018H34.7865L24.9527 41.9704L24.0322 44.5191L22.8896 47.6798L21.8661 50.5187C21.8526 50.5557 21.8272 50.5863 21.7943 50.6052C21.7614 50.624 21.7233 50.6298 21.6868 50.6215C21.6503 50.6132 21.6178 50.5913 21.595 50.5598C21.5723 50.5284 21.5609 50.4894 21.5629 50.4498L21.8553 45.2949L8.57209 14.699H0V15.4288H4.03424V57.7999H0V58.5298H8.75349V57.7999H4.72196V27.0546C4.72059 26.9337 4.75853 26.816 4.82938 26.7213C4.90023 26.6266 4.99967 26.5607 5.11094 26.5347C5.22222 26.5087 5.33853 26.5242 5.44028 26.5786C5.54204 26.633 5.62303 26.723 5.6696 26.8333L19.1694 58.024L19.1884 58.0556L19.5349 58.8458H19.6432L34.7892 16.7132V57.8028H30.7604V58.5355H46.2638V57.8028H42.2377Z" fill="#131313"/>
<path d="M47.4045 0L46.2646 1.21257V42.6239L47.4045 43.8365H54.2491L55.389 42.6239V1.21257L54.2491 0H47.4045Z" fill="#F77E3E"/>
<path d="M48.1537 35.4045L53.4957 37.1544V39.2922L48.1537 41.0335V39.6801L52.9948 38.2147L48.1537 36.778V35.4045Z" fill="#F8F8F8"/>
<path d="M48.1537 34.2895V33.0166H53.4957V34.2895H48.1537Z" fill="#F8F8F8"/>
<path d="M52.4587 27.2153H53.4957V31.2898H48.1537V30.0169H52.4587V27.2153Z" fill="#F8F8F8"/>
<path d="M52.4587 21.8523H53.4957V25.9268H48.1537V24.6567H52.4587V21.8523Z" fill="#F8F8F8"/>
<path d="M52.4126 16.8795V19.2845L53.4957 19.6322V20.9539L48.1537 19.0517V17.1151L53.4957 15.2129V16.5347L52.4126 16.8795ZM51.4054 17.2042L48.6356 18.0863L51.4054 18.9655V17.2042Z" fill="#F8F8F8"/>
<path d="M50.582 9.03027H53.498V10.0819L52.1172 10.2371C53.2002 10.4957 53.5522 11.2658 53.5522 12.0991C53.5522 13.5358 52.3771 14.6018 50.8284 14.6018C50.4689 14.6141 50.1109 14.5483 49.7763 14.4084C49.4417 14.2686 49.1375 14.0577 48.8825 13.7886C48.6274 13.5195 48.4268 13.198 48.2931 12.8437C48.1593 12.4895 48.0952 12.1099 48.1046 11.7284C48.1046 10.3434 48.7165 9.37795 49.8591 9.10498V10.3779C49.3311 10.5963 49.1037 11.0589 49.1037 11.7054C49.1037 12.7168 49.897 13.326 50.8284 13.326C51.8356 13.326 52.591 12.7513 52.591 11.714C52.591 10.852 52.2011 10.3693 51.4755 10.2773V11.9065H50.582V9.03027Z" fill="#F8F8F8"/>
<path d="M52.4912 3.18042H53.4984V7.52212H48.1537V3.23789H49.1528V6.25208H50.2683V3.59419H51.2674V6.25208H52.4885L52.4912 3.18042Z" fill="#F8F8F8"/>
</g>
<defs>
<clipPath id="clip0_4179_2403">
<rect width="55.3882" height="58.85" fill="white"/>
</clipPath>
</defs>
</svg>
